# xmcd CD database file
#
# Track frame offsets:
#	150
#	32699
#	51595
#	55477
#	58508
#	62874
#	78664
#	96290
#	127568
#	146026
#	154918
#	184595
#	210737
#	232503
#
# Disc length: 3358 seconds
#
# Revision: 0
# Processed by: cddbd v1.5.1PL0 Copyright (c) Steve Scherf et al.
# Submitted via: CDex 1.51
#
DISCID=c10d1c0e
DTITLE=J. García Benegas - New Age Música para la Relajación Vol. 1
DYEAR=1997
DGENRE=New Age
TTITLE0=El Valle Superviviente
TTITLE1=De Abismos y Pasione
TTITLE2=Siluetas en el Agua Parte1ª
TTITLE3=Siluetas en el Agua Parte2ª
TTITLE4=Siluetas en el Agua Parte3ª
TTITLE5=Cenizas sobre Arenas
TTITLE6=Krakatoa
TTITLE7=Terremoto
TTITLE8=De Semillas y Mercados
TTITLE9=La Rebelión de los Grifos
TTITLE10=Danza de la lluvia
TTITLE11=Nirvana
TTITLE12=La Marcha de las Ballenas
TTITLE13=Olas de Humo
EXTD=YEAR: 1997
EXTT0=
EXTT1=
EXTT2=
EXTT3=
EXTT4=
EXTT5=
EXTT6=
EXTT7=
EXTT8=
EXTT9=
EXTT10=
EXTT11=
EXTT12=
EXTT13=
PLAYORDER=
